<svg width="91" height="90" viewBox="0 0 91 90" fill="none" xmlns="http://www.w3.org/2000/svg">
<path fill-rule="evenodd" clip-rule="evenodd" d="M39.4606 14.4642C39.4602 14.4182 39.46 14.3721 39.46 14.326C39.46 6.70628 45.6369 0.529297 53.2566 0.529297C60.8763 0.529297 67.0533 6.70628 67.0533 14.326C67.0533 14.3713 67.0531 14.4166 67.0527 14.4619C67.0532 14.4905 67.0534 14.5191 67.0534 14.5478V15.9688L79.2568 15.9688C85.332 15.9688 90.2568 20.8936 90.2568 26.9688L90.2569 40.961C90.2569 45.4959 86.5806 49.1722 82.0457 49.1722H79.0033C78.9064 49.1754 78.8089 49.1758 78.7108 49.1734C78.6789 49.1727 78.6467 49.1723 78.6141 49.1723C76.5172 49.1723 74.8174 50.8721 74.8174 52.9689C74.8174 55.0658 76.5172 56.7656 78.6141 56.7656C78.6465 56.7656 78.6788 56.7652 78.711 56.7644C78.8084 56.7621 78.9053 56.7625 79.0014 56.7656H82.0457C86.5806 56.7656 90.2569 60.4419 90.2569 64.9768L90.2568 78.9688C90.2568 85.0439 85.332 89.9688 79.2568 89.9688L65.2651 89.9688C60.7301 89.9688 57.0539 86.2925 57.0539 81.7576V78.7151C57.0507 78.6184 57.0502 78.521 57.0526 78.4229C57.0534 78.3907 57.0538 78.3584 57.0538 78.326C57.0538 76.2291 55.354 74.5293 53.2571 74.5293C51.1603 74.5293 49.4604 76.2291 49.4604 78.326C49.4604 78.3434 49.4606 78.3607 49.4608 78.378C49.461 78.393 49.4613 78.408 49.4616 78.423C49.464 78.5204 49.4636 78.6172 49.4604 78.7133V81.7576C49.4604 86.2925 45.7842 89.9688 41.2493 89.9688L27.2568 89.9688C21.1817 89.9688 16.2568 85.0439 16.2568 78.9688L16.2568 66.7654H14.8358C14.8079 66.7654 14.7801 66.7651 14.7523 66.7647C14.7063 66.7651 14.6602 66.7654 14.6141 66.7654C6.99437 66.7654 0.817383 60.5884 0.817383 52.9687C0.817383 45.349 6.99437 39.172 14.6141 39.172C14.6594 39.172 14.7047 39.1722 14.75 39.1727C14.7786 39.1722 14.8072 39.172 14.8359 39.172H16.2568L16.2568 26.9688C16.2568 20.8936 21.1817 15.9688 27.2568 15.9688L39.46 15.9688V14.5477C39.46 14.5198 39.4602 14.492 39.4606 14.4642ZM44.4613 14.5464C44.4606 14.5464 44.46 14.547 44.46 14.5477V17.7576C44.46 19.5311 43.0223 20.9688 41.2488 20.9688L27.2568 20.9688C23.9431 20.9688 21.2568 23.655 21.2568 26.9688L21.2568 40.9608C21.2568 42.7343 19.8192 44.172 18.0457 44.172H14.8359C14.8351 44.172 14.8345 44.1726 14.8345 44.1733C14.8345 44.1741 14.8339 44.1747 14.8331 44.1747C14.8112 44.1742 14.7892 44.1737 14.7673 44.1733C14.7163 44.1725 14.6652 44.172 14.6141 44.172C14.5629 44.172 14.5118 44.1725 14.4608 44.1733C9.67323 44.2551 5.81738 48.1616 5.81738 52.9687C5.81738 57.7752 9.67227 61.6813 14.459 61.764C14.5106 61.7649 14.5623 61.7654 14.6141 61.7654C14.6658 61.7654 14.7175 61.7649 14.7691 61.764C14.7904 61.7637 14.8118 61.7632 14.8331 61.7627C14.8333 61.7627 14.8335 61.7627 14.8337 61.7628C14.8342 61.763 14.8345 61.7635 14.8345 61.764C14.8345 61.7648 14.8351 61.7654 14.8358 61.7654H18.0457C19.8192 61.7654 21.2568 63.2031 21.2568 64.9766L21.2568 78.9688C21.2568 82.2825 23.9431 84.9688 27.2568 84.9688L41.2493 84.9688C43.0228 84.9688 44.4604 83.5311 44.4604 81.7576V78.5477C44.4604 78.5472 44.4607 78.5468 44.4611 78.5466C44.4613 78.5465 44.4615 78.5464 44.4618 78.5464C44.4625 78.5464 44.4631 78.5458 44.4631 78.545C44.4626 78.5237 44.4622 78.5024 44.4618 78.481C44.4609 78.4294 44.4604 78.3778 44.4604 78.326C44.4604 78.2742 44.4609 78.2225 44.4618 78.1709C44.5445 73.3842 48.4506 69.5293 53.2571 69.5293C58.0642 69.5293 61.9707 73.3851 62.0525 78.1727C62.0534 78.2237 62.0538 78.2748 62.0538 78.326C62.0538 78.3772 62.0534 78.4282 62.0525 78.4792C62.0521 78.5012 62.0517 78.5231 62.0511 78.545C62.0511 78.5458 62.0517 78.5464 62.0525 78.5464C62.0533 78.5464 62.0539 78.547 62.0539 78.5478V81.7576C62.0539 83.5311 63.4916 84.9688 65.2651 84.9688L79.2568 84.9688C82.5705 84.9688 85.2568 82.2825 85.2568 78.9688L85.2569 64.9768C85.2569 63.2033 83.8192 61.7656 82.0457 61.7656H78.8358C78.8351 61.7656 78.8345 61.765 78.8345 61.7643C78.8345 61.7635 78.8339 61.7629 78.8331 61.763C78.8118 61.7635 78.7905 61.7639 78.7691 61.7643C78.7175 61.7652 78.6658 61.7656 78.6141 61.7656C78.5623 61.7656 78.5106 61.7652 78.459 61.7643C73.6723 61.6816 69.8174 57.7754 69.8174 52.9689C69.8174 48.1619 73.6732 44.2554 78.4608 44.1736C78.5118 44.1727 78.5629 44.1723 78.6141 44.1723C78.6653 44.1723 78.7164 44.1727 78.7674 44.1736C78.7893 44.1739 78.8112 44.1744 78.8331 44.1749C78.8336 44.1749 78.8341 44.1747 78.8343 44.1742C78.8344 44.174 78.8345 44.1738 78.8345 44.1736C78.8345 44.1728 78.8351 44.1722 78.8359 44.1722H82.0457C83.8192 44.1722 85.2569 42.7345 85.2569 40.961L85.2568 26.9688C85.2568 23.655 82.5705 20.9688 79.2568 20.9688L65.2646 20.9688C63.4911 20.9688 62.0534 19.5311 62.0534 17.7576V14.5478C62.0534 14.547 62.0528 14.5464 62.052 14.5464C62.0517 14.5464 62.0515 14.5463 62.0513 14.5462C62.0509 14.5459 62.0506 14.5455 62.0507 14.545C62.0512 14.5231 62.0516 14.5012 62.052 14.4792C62.0529 14.4282 62.0533 14.3772 62.0533 14.326C62.0533 14.2748 62.0529 14.2237 62.052 14.1727C61.9702 9.38514 58.0637 5.5293 53.2566 5.5293C48.4502 5.5293 44.544 9.38419 44.4613 14.1709C44.4604 14.2225 44.46 14.2742 44.46 14.326C44.46 14.3778 44.4604 14.4294 44.4613 14.481C44.4617 14.5024 44.4621 14.5237 44.4626 14.545C44.4627 14.5458 44.4621 14.5464 44.4613 14.5464Z" fill="white"/>
<path d="M40.6123 43.1016C40.6123 41.2394 42.1219 39.7297 43.9841 39.7297H62.5299C64.3921 39.7297 65.9017 41.2394 65.9017 43.1016V43.1016C65.9017 44.9638 64.3921 46.4734 62.5299 46.4734H43.9841C42.1219 46.4734 40.6123 44.9638 40.6123 43.1016V43.1016Z" fill="white"/>
<path d="M40.6123 62.8357C40.6123 60.9735 42.1219 59.4639 43.9841 59.4639H62.5299C64.3921 59.4639 65.9017 60.9735 65.9017 62.8357V62.8357C65.9017 64.6979 64.3921 66.2076 62.5299 66.2076H43.9841C42.1219 66.2076 40.6123 64.6979 40.6123 62.8357V62.8357Z" fill="white"/>
<path d="M41.0061 65.2198C39.6894 63.903 39.6894 61.7681 41.0061 60.4513L60.7401 40.7173C62.0569 39.4005 64.1919 39.4005 65.5086 40.7173C66.8254 42.0341 66.8254 44.169 65.5086 45.4858L45.7747 65.2198C44.4579 66.5366 42.3229 66.5366 41.0061 65.2198Z" fill="white"/>
<path d="M25.938 26.6504C25.938 25.8539 26.5836 25.2083 27.3801 25.2083H32.8448C33.6413 25.2083 34.2869 25.8539 34.2869 26.6504V26.6504C34.2869 27.4468 33.6413 28.0925 32.8448 28.0925H27.3801C26.5836 28.0925 25.938 27.4468 25.938 26.6504V26.6504Z" fill="white"/>
<path d="M27.3801 33.5571C26.5836 33.5571 25.938 32.9115 25.938 32.115V26.6503C25.938 25.8539 26.5836 25.2082 27.3801 25.2082V25.2082C28.1766 25.2082 28.8222 25.8539 28.8222 26.6503V32.115C28.8222 32.9115 28.1766 33.5571 27.3801 33.5571V33.5571Z" fill="white"/>
<path d="M30.1128 30.8249C30.1128 30.0285 30.7585 29.3828 31.5549 29.3828H37.0196C37.8161 29.3828 38.4617 30.0285 38.4617 30.8249V30.8249C38.4617 31.6214 37.8161 32.267 37.0196 32.267H31.5549C30.7584 32.267 30.1128 31.6214 30.1128 30.8249V30.8249Z" fill="white"/>
<path d="M31.5549 37.7317C30.7584 37.7317 30.1128 37.086 30.1128 36.2896V30.8249C30.1128 30.0284 30.7584 29.3828 31.5549 29.3828V29.3828C32.3514 29.3828 32.997 30.0284 32.997 30.8249V36.2896C32.997 37.086 32.3514 37.7317 31.5549 37.7317V37.7317Z" fill="white"/>
</svg>
